<?xml version="1.0" standalone="no"?>
<!DOCTYPE svg PUBLIC "-//W3C//DTD SVG 20010904//EN"
 "http://www.w3.org/TR/2001/REC-SVG-20010904/DTD/svg10.dtd">
<svg version="1.0" xmlns="http://www.w3.org/2000/svg"
 width="300.000000pt" height="300.000000pt" viewBox="0 0 300.000000 300.000000"
 preserveAspectRatio="xMidYMid meet">
<metadata>
Created by potrace 1.10, written by Peter Selinger 2001-2011
</metadata>
<g transform="translate(0.000000,300.000000) scale(0.100000,-0.100000)"
fill="#000000" stroke="none">
<path d="M2264 2358 c-16 -13 -41 -23 -57 -24 -15 -1 -36 -9 -46 -18 -10 -9
-23 -16 -29 -16 -27 0 -64 -26 -84 -59 -27 -43 -49 -62 -65 -56 -16 5 -16 2
-2 -28 6 -13 25 -32 42 -41 l32 -17 -40 5 -40 5 27 -15 c32 -17 77 -9 85 15 3
9 13 25 22 35 14 18 12 18 -20 -2 -53 -32 -60 -26 -14 13 22 19 42 35 45 35
13 -1 28 -17 35 -40 12 -40 35 -59 90 -75 29 -9 60 -21 69 -28 16 -12 9 -16
-58 -42 -42 -16 -73 -31 -71 -33 8 -8 142 48 156 64 15 19 -11 40 -61 49 -52
10 -77 30 -104 84 -39 75 -81 83 -122 21 -15 -22 -31 -40 -36 -40 -13 0 27 54
62 83 16 14 26 28 23 31 -4 3 8 6 25 6 17 0 34 5 37 10 4 6 15 8 26 5 11 -4
41 6 76 25 46 25 65 31 93 26 19 -4 55 -9 80 -11 78 -8 93 -14 130 -50 20 -19
39 -32 43 -29 4 4 7 0 7 -8 0 -9 7 -19 15 -22 25 -9 14 -139 -15 -196 -13 -25
-24 -63 -24 -85 -1 -36 -3 -40 -28 -42 -34 -3 -54 27 -38 56 14 27 12 102 -3
122 -7 8 -24 23 -38 33 -26 16 -28 16 -58 -10 -17 -14 -31 -32 -31 -39 0 -7
-13 -16 -30 -20 -35 -8 -38 -20 -10 -35 27 -14 38 -6 57 41 8 22 25 45 36 51
48 25 89 -85 52 -140 -14 -19 -14 -24 0 -52 17 -33 19 -34 85 -30 54 3 68 10
46 22 -20 11 -21 28 -2 28 9 0 12 8 8 26 -3 16 4 41 17 65 12 21 22 51 22 67
-1 15 -1 34 -2 42 0 8 3 33 6 55 7 50 -21 101 -62 111 -15 4 -41 22 -59 40
-37 36 -63 44 -110 32 -22 -6 -40 -4 -60 7 -43 22 -96 19 -130 -7z"/>
<path d="M557 2304 c-61 -19 -110 -67 -175 -176 -63 -103 -112 -150 -183 -173
-137 -45 -173 -104 -128 -213 17 -41 5 -63 -39 -74 -40 -11 -44 -39 -5 -32 69
13 86 38 85 127 0 86 7 102 53 118 24 9 34 18 30 28 -4 11 -3 12 10 1 12 -10
15 -10 16 1 0 8 32 29 70 47 39 19 68 36 65 39 -3 3 5 24 18 47 13 22 36 62
51 89 31 55 117 145 123 128 2 -7 9 -8 22 -1 31 16 123 14 158 -4 17 -9 36
-16 42 -16 7 0 26 -10 43 -22 17 -12 36 -23 42 -24 40 -7 65 -25 65 -48 0 -27
-59 -94 -102 -116 -31 -15 -38 -33 -10 -24 13 4 12 3 -3 -8 -14 -9 -50 -12
-120 -11 -75 2 -109 -1 -137 -14 -21 -9 -38 -20 -38 -25 0 -5 6 -6 13 -1 6 4
14 8 17 8 3 1 21 6 41 13 25 9 58 10 115 4 79 -9 79 -9 149 27 49 26 75 46 89
71 l19 35 -38 -35 -39 -35 27 33 c15 19 27 42 27 52 0 10 4 21 9 25 13 7 25
-94 19 -156 -3 -27 -2 -49 2 -49 18 0 53 53 60 90 6 31 3 46 -9 63 -9 12 -22
34 -28 49 -7 16 -31 37 -55 49 -24 12 -56 32 -73 44 -37 28 -115 61 -175 75
-57 12 -65 12 -123 -6z"/>
<path d="M2336 2195 c-23 -17 -69 -19 -97 -5 -10 6 -19 8 -19 6 0 -9 58 -36
75 -36 9 0 28 11 43 25 29 27 28 33 -2 10z"/>
<path d="M2224 2134 c17 -15 37 -24 47 -21 10 3 20 0 23 -7 2 -6 5 -3 5 6 1 9
7 18 14 21 6 2 0 2 -14 0 -15 -2 -44 3 -65 11 l-39 16 29 -26z"/>
<path d="M2090 2045 c0 -22 4 -34 10 -30 6 3 10 17 10 30 0 13 -4 27 -10 30
-6 4 -10 -8 -10 -30z"/>
<path d="M554 2049 c-17 -5 -37 -16 -44 -24 -10 -12 -4 -11 29 3 23 11 44 22
48 25 7 8 8 8 -33 -4z"/>
<path d="M2143 2025 c-20 -8 -35 -23 -38 -38 -4 -14 -15 -27 -25 -30 -13 -3
-17 -11 -13 -26 8 -30 21 -35 15 -6 -6 35 4 31 52 -20 50 -53 81 -60 74 -17
-3 15 -8 34 -12 42 -5 11 2 19 21 28 l28 11 -32 -5 c-17 -3 -34 0 -38 5 -9 16
-36 13 -56 -5 -16 -15 -17 -14 -12 5 3 12 8 20 11 17 2 -3 16 4 30 14 13 11
33 20 44 20 11 0 16 5 13 10 -8 13 -23 12 -62 -5z m11 -70 c-4 -9 0 -15 9 -15
16 0 44 -56 33 -67 -8 -8 -54 35 -61 58 -7 20 1 39 15 39 5 0 7 -7 4 -15z"/>
<path d="M2437 2012 c1 -8 3 -22 3 -33 0 -11 7 -19 16 -19 10 0 14 5 10 16 -3
8 -2 12 4 9 6 -3 10 1 10 9 0 10 -6 13 -17 9 -12 -5 -14 -3 -8 7 5 8 4 11 -3
6 -5 -3 -12 -3 -15 1 -2 5 -2 2 0 -5z"/>
<path d="M860 1974 l-25 -15 29 4 c17 3 40 1 53 -4 17 -6 23 -5 23 5 0 28 -43
33 -80 10z"/>
<path d="M656 1938 c21 -23 52 -23 82 0 22 17 21 17 -38 18 -58 1 -60 0 -44
-18z"/>
<path d="M547 1924 c-12 -13 -7 -55 8 -70 8 -9 15 -25 15 -37 0 -18 -2 -19
-11 -7 -8 12 -9 11 -5 -5 16 -61 17 -76 6 -113 -12 -46 -63 -93 -104 -96 -13
0 -22 -4 -19 -8 2 -5 0 -8 -6 -8 -5 0 -13 5 -16 10 -9 15 -27 12 -19 -2 5 -10
4 -10 -6 -1 -8 8 -20 9 -36 3 -13 -5 -24 -7 -24 -4 0 12 -89 -57 -112 -88 -49
-65 -64 -105 -72 -194 -5 -50 -12 -54 -55 -33 -33 15 -40 25 -43 51 -2 27 -8
34 -28 36 -22 2 -23 1 -8 -11 11 -9 14 -18 7 -28 -21 -34 3 -82 42 -84 13 -1
43 -11 67 -24 31 -16 42 -27 42 -45 0 -59 13 -88 51 -113 32 -21 50 -47 95
-140 44 -91 63 -118 93 -139 51 -33 122 -41 193 -20 52 15 82 35 217 142 24
19 56 38 71 40 22 5 34 21 70 94 41 83 46 90 86 103 35 11 49 11 85 0 42 -12
45 -12 66 12 12 13 27 49 33 79 6 30 17 59 25 66 7 6 11 20 8 30 -3 12 1 22
11 26 9 3 16 17 16 30 0 14 9 37 19 52 11 15 37 71 57 125 33 87 35 100 22
113 -8 8 -61 24 -117 36 -98 19 -103 20 -121 3 -11 -10 -20 -22 -20 -26 0 -21
-81 -194 -101 -215 -13 -14 -19 -30 -15 -39 3 -9 -10 -55 -30 -102 -19 -47
-34 -95 -32 -107 2 -14 19 -29 48 -43 30 -15 38 -22 24 -23 -27 0 -58 -37 -96
-114 -27 -55 -37 -66 -77 -84 -26 -11 -69 -40 -96 -65 -27 -25 -53 -43 -57
-41 -4 3 -8 -1 -8 -9 0 -23 -106 -67 -161 -67 -34 0 -100 30 -93 42 3 4 -2 5
-10 2 -9 -3 -16 -2 -16 3 0 5 -9 19 -20 31 -25 27 -60 88 -60 106 0 7 -7 19
-15 26 -8 7 -13 16 -10 20 3 5 0 12 -6 15 -5 4 -8 13 -5 21 3 7 0 11 -7 8 -21
-8 -80 62 -84 98 -2 18 -13 46 -24 62 -19 25 -21 38 -16 97 3 38 14 88 25 112
44 98 134 163 211 151 53 -8 121 17 155 57 36 43 48 95 36 159 -5 29 -10 57
-10 62 0 16 49 -27 53 -47 3 -12 5 -8 6 12 1 26 -3 32 -21 35 -16 2 -30 17
-44 46 -11 23 -23 39 -27 36z m681 -240 c12 -8 35 -15 50 -14 56 4 83 0 88
-15 6 -15 -170 -471 -190 -493 -17 -18 -206 42 -206 65 0 15 158 411 181 456
12 21 47 22 77 1z"/>
<path d="M855 1920 c-19 -8 -19 -9 2 -9 16 -1 21 -6 17 -16 -8 -21 6 -19 22 2
17 24 20 18 27 -45 5 -41 3 -54 -8 -59 -8 -3 -15 -14 -15 -25 0 -17 -5 -20
-36 -16 l-37 4 23 -18 c12 -10 17 -18 11 -18 -6 0 -11 -6 -11 -14 0 -8 -9 -24
-19 -37 -14 -18 -23 -21 -31 -13 -15 15 -110 6 -131 -12 -9 -8 -28 -37 -43
-64 l-27 -50 19 -28 c11 -15 29 -46 41 -69 27 -53 51 -55 97 -9 42 42 44 79 9
151 -14 28 -25 56 -25 63 0 15 22 16 37 1 17 -17 66 -6 78 17 6 12 17 29 24
37 7 9 10 20 7 25 -3 6 3 12 14 15 13 3 18 11 14 20 -3 10 5 18 25 25 17 6 31
12 31 14 0 2 -9 26 -20 55 -11 29 -17 60 -14 70 5 15 4 16 -5 3 -7 -10 -11
-11 -11 -2 0 14 -35 15 -65 2z m-139 -372 c17 -52 9 -79 -26 -98 -21 -11 -37
-13 -27 -3 4 3 2 12 -4 19 -8 10 -6 19 5 36 19 27 22 49 3 23 -8 -10 -19 -15
-25 -11 -13 8 -7 49 8 54 5 2 10 10 10 18 0 9 5 12 10 9 6 -3 10 2 10 13 0 28
15 37 18 10 2 -12 10 -44 18 -70z m54 -59 c0 -29 -41 -79 -65 -79 -21 0 -19 4
15 38 21 22 30 40 30 64 0 25 3 29 10 18 5 -8 10 -27 10 -41z"/>
<path d="M2101 1869 c-14 -40 0 -60 38 -57 21 2 27 -2 29 -21 2 -13 13 -33 24
-45 11 -11 26 -36 33 -53 17 -40 31 -41 95 -8 27 14 56 25 63 25 8 0 35 -24
61 -54 l46 -54 -35 -37 c-60 -63 -67 -87 -77 -247 -9 -143 -3 -208 18 -215 7
-2 11 34 12 104 1 161 7 224 25 263 16 32 17 33 13 8 -2 -16 1 -28 5 -28 5 0
9 9 9 21 0 11 10 42 21 69 15 35 19 58 14 77 -5 16 -7 35 -6 43 1 12 0 12 -7
1 -7 -9 -12 -10 -16 -2 -4 6 -4 11 1 11 4 0 2 4 -6 9 -12 8 -12 14 4 38 l18
28 -22 -20 -23 -20 -18 22 c-10 12 -20 20 -23 17 -3 -3 -24 -10 -47 -15 -23
-5 -49 -16 -57 -25 -18 -18 -33 -14 -47 12 -6 10 -17 23 -24 27 -11 7 -9 14
10 34 l23 25 -29 -13 c-25 -12 -30 -11 -42 5 -7 11 -11 23 -8 28 3 4 -9 11
-26 15 -27 5 -31 10 -27 30 7 36 -10 37 -22 2z"/>
<path d="M193 1874 c-33 -16 -63 -66 -63 -104 0 -29 16 -17 41 32 11 22 32 51
46 64 30 28 22 30 -24 8z"/>
<path d="M2600 1846 c0 -29 40 -83 77 -103 18 -9 29 -22 26 -30 -3 -8 2 -13
16 -13 25 0 147 -78 143 -92 -1 -5 2 -7 8 -3 5 3 10 1 10 -4 0 -6 7 -11 15
-11 9 0 36 -19 60 -41 51 -47 61 -33 18 24 -36 46 -56 61 -178 131 -64 37
-117 76 -147 109 -36 39 -48 47 -48 33z"/>
<path d="M2580 1528 c-78 -116 -94 -144 -71 -124 11 11 21 23 21 27 0 4 21 38
46 74 26 36 44 68 42 70 -2 2 -19 -19 -38 -47z"/>
<path d="M798 1525 c6 -11 12 -62 16 -113 6 -94 18 -126 61 -162 22 -18 19 4
-4 24 -24 22 -41 89 -41 164 0 46 -5 65 -21 83 -16 20 -18 20 -11 4z"/>
<path d="M994 1467 c-69 -96 -71 -101 -76 -183 -4 -57 -12 -85 -41 -139 -20
-38 -35 -70 -33 -72 2 -3 16 11 30 30 30 39 76 159 76 198 0 41 26 106 63 158
19 25 37 54 40 64 13 35 -10 14 -59 -56z"/>
<path d="M1905 1521 c-16 -5 -118 -27 -225 -50 -233 -50 -250 -56 -250 -86 0
-13 43 -89 95 -170 52 -81 95 -151 95 -156 0 -5 -6 -8 -12 -7 -14 3 -14 -5 -2
-120 l7 -73 81 -75 c58 -54 106 -88 176 -123 53 -27 107 -52 121 -56 23 -7
117 -46 205 -86 129 -58 294 -99 398 -99 l70 0 50 53 c52 54 88 128 158 322
15 44 34 91 42 105 7 14 19 48 25 75 13 59 46 182 57 210 6 18 4 17 -19 -4
-15 -13 -30 -40 -33 -60 -4 -20 -11 -41 -16 -48 -5 -6 -10 -27 -11 -47 -2 -19
-6 -38 -10 -42 -4 -4 -7 -18 -7 -32 0 -20 -4 -23 -21 -19 -16 4 -18 3 -9 -8 8
-9 7 -21 -1 -41 -15 -38 -20 -52 -59 -159 -18 -49 -37 -92 -41 -95 -5 -3 -10
-15 -12 -25 -8 -48 -62 -121 -107 -145 -17 -9 -128 -6 -185 5 -56 11 -69 16
-76 27 -4 7 -11 9 -15 6 -3 -4 -21 -1 -39 7 -19 7 -36 11 -39 8 -3 -3 -8 1
-12 10 -5 13 -10 14 -27 6 -17 -10 -19 -9 -13 6 5 15 1 17 -23 13 -17 -2 -28
-1 -26 3 6 9 -20 31 -27 23 -3 -2 -31 7 -61 21 -31 14 -58 25 -61 25 -9 0 -92
37 -181 82 -84 41 -205 141 -205 169 0 8 -5 20 -12 27 -13 13 -15 21 -23 97
-5 51 2 46 24 -16 10 -26 71 -79 71 -61 0 5 -18 32 -40 60 -40 50 -54 91 -34
99 6 2 25 -18 42 -44 17 -26 47 -64 68 -83 20 -19 56 -65 80 -102 24 -38 49
-68 55 -68 8 0 6 6 -3 18 -9 9 -26 38 -38 65 -12 26 -44 67 -71 91 -55 50
-296 413 -282 426 4 4 103 28 218 54 116 25 219 48 231 52 18 5 29 -7 71 -68
31 -45 57 -73 69 -74 10 -1 35 -4 54 -8 33 -7 34 -6 16 9 -11 8 -29 15 -40 15
-15 1 -37 25 -76 83 -58 87 -71 94 -135 78z"/>
<path d="M0 1491 c0 -6 5 -13 10 -16 14 -8 13 -48 -1 -62 -7 -7 -9 -19 -5 -28
4 -13 10 -14 26 -5 11 6 18 15 15 21 -4 5 -2 9 3 9 13 0 2 52 -16 73 -16 19
-32 22 -32 8z"/>
<path d="M1850 1390 c0 -5 -10 -18 -22 -30 -24 -22 -68 -26 -100 -9 -17 9 -24
8 -34 -6 -8 -10 -11 -22 -7 -28 3 -5 10 -2 15 7 9 16 12 16 43 -3 19 -11 32
-14 29 -7 -3 7 13 16 41 24 29 8 45 17 45 28 0 24 23 11 31 -17 6 -20 7 -21 8
-4 0 11 -3 25 -7 31 -10 15 -42 25 -42 14z"/>
<path d="M2666 1367 c-3 -19 -8 -74 -11 -123 -2 -49 -7 -125 -11 -169 -3 -44
-3 -77 0 -74 4 3 13 93 22 199 14 183 14 242 0 167z"/>
<path d="M1925 1368 c11 -6 36 -25 55 -42 32 -28 32 -28 -5 12 -21 23 -46 42
-55 42 -11 -1 -10 -4 5 -12z"/>
<path d="M2200 1339 c-36 -15 -72 -26 -82 -23 -9 3 -19 0 -23 -5 -4 -7 1 -8
12 -5 15 5 16 4 3 -5 -8 -6 -23 -11 -32 -11 -10 0 -18 -5 -18 -12 0 -6 3 -9 6
-5 4 3 22 0 41 -8 18 -8 31 -11 29 -6 -3 4 32 24 77 44 46 20 83 42 85 51 5
23 -22 19 -98 -15z"/>
<path d="M2037 1302 c-15 -16 -25 -31 -22 -34 3 -3 -8 -11 -24 -18 -17 -7 -36
-18 -42 -26 -9 -11 -6 -14 15 -14 15 0 36 5 47 11 22 11 50 -3 48 -25 0 -7 -2
-6 -6 2 -5 14 -23 7 -23 -10 0 -6 12 -8 30 -4 26 5 30 3 30 -17 0 -17 -2 -19
-10 -7 -5 8 -12 12 -15 8 -10 -10 38 -49 53 -43 8 3 36 -16 65 -45 28 -27 54
-50 58 -50 13 0 131 -192 123 -199 -5 -5 -71 -30 -147 -56 -126 -43 -143 -46
-180 -36 -49 12 -62 6 -21 -9 15 -6 71 -11 124 -11 79 -1 110 4 180 28 118 39
121 50 45 168 -32 50 -62 92 -67 93 -30 12 -110 87 -129 123 -16 28 -41 53
-74 72 -58 34 -68 46 -53 64 8 11 7 12 -8 7 -17 -5 -17 -4 -4 8 19 17 44 48
38 48 -2 0 -16 -13 -31 -28z"/>
<path d="M1662 1274 c1 -38 2 -42 5 -15 l4 33 27 -23 c25 -22 24 -21 -3 11
-16 19 -31 37 -32 39 -2 2 -2 -18 -1 -45z"/>
<path d="M2230 1276 c0 -13 4 -28 10 -31 5 -3 14 -23 20 -45 6 -21 22 -52 35
-68 27 -32 81 -59 93 -47 4 4 1 10 -7 13 -33 11 -73 62 -100 127 -31 73 -51
94 -51 51z"/>
<path d="M1681 1183 c3 -20 -2 -26 -11 -13 -7 10 -10 11 -10 2 0 -13 22 -23
73 -36 23 -5 27 -3 27 16 0 17 -3 19 -12 10 -13 -13 -49 -17 -47 -4 3 18 -2
32 -11 32 -5 0 -9 -3 -9 -7z"/>
<path d="M1804 1128 c25 -38 46 -92 71 -188 40 -147 60 -195 51 -120 -7 50
-10 68 -19 90 -3 8 -17 51 -32 95 -14 43 -42 101 -62 127 -46 64 -52 61 -9 -4z"/>
<path d="M2011 1145 c7 -11 18 -24 24 -30 31 -29 76 -96 70 -105 -4 -6 -3 -10
2 -9 13 3 43 -12 39 -20 -3 -4 16 -27 40 -51 38 -37 43 -46 30 -55 -9 -7 -11
-16 -6 -25 7 -11 13 -10 34 4 14 9 26 18 26 20 0 4 -141 156 -224 241 -27 27
-43 41 -35 30z"/>
<path d="M2680 1066 c7 -6 139 -10 145 -4 3 3 -29 6 -72 7 -43 1 -75 0 -73 -3z"/>
<path d="M2631 969 c-1 -35 -38 -208 -52 -241 -9 -22 -18 -28 -40 -28 -26 0
-29 4 -30 33 -1 33 -27 114 -28 86 -1 -9 4 -41 10 -72 11 -55 13 -57 44 -57
18 0 38 6 44 14 23 28 71 244 60 272 -6 16 -8 15 -8 -7z"/>
<path d="M2443 902 c15 -19 27 -41 28 -50 0 -9 3 -12 5 -6 2 6 -2 26 -10 45
-9 19 -15 30 -16 25 0 -5 -8 -2 -17 5 -10 8 -5 -1 10 -19z"/>
<path d="M2183 848 c7 -20 8 -20 -51 -22 -27 -2 -47 -9 -55 -21 -10 -13 -23
-16 -45 -13 -20 3 -39 -2 -54 -14 l-23 -18 31 9 c17 5 43 6 58 4 18 -4 37 1
55 15 17 12 37 18 52 15 13 -2 33 3 44 11 20 14 20 15 1 33 -17 17 -18 17 -13
1z"/>
</g>
</svg>
